<svg id="Layer_1" enable-background="new 0 0 512 512" height="512" viewBox="0 0 512 512" width="512" xmlns="http://www.w3.org/2000/svg"><path d="m256 0c-141.385 0-256 114.615-256 256s114.615 256 256 256 256-114.615 256-256-114.615-256-256-256zm89.885 268.582-112 87.999c-10.408 8.175-25.885.815-25.885-12.581v-88c0-8.837 7.164-16 16-16s16 7.163 16 16v55.081l70.103-55.08-95.988-75.42c-6.948-5.46-8.155-15.518-2.696-22.466 5.459-6.949 15.519-8.155 22.466-2.696l112 88.001c8.155 6.407 8.141 18.766 0 25.162z"/></svg>